#!OML:ASF F:\VICON\USERDATA\INSTALL\rory3\rory3.ASF
:FULLY-SPECIFIED
:DEGREES
361
root 0.737511 17.7803 -17.2999 4.55345 -0.257222 0.660753
lowerback 6.84218 -0.468464 -1.41007
upperback -0.0395376 -0.663258 1.85706
thorax -3.84176 -0.285359 2.78275
lowerneck -20.4614 -4.02546 -9.49943
upperneck 14.7975 -4.08395 7.06813
head 8.29669 -1.75578 3.40321
rclavicle -3.97569e-016 -1.90833e-014
rhumerus -39.6806 -16.6057 -68.6713
rradius 37.4954
rwrist 1.73618
rhand -13.6523 14.0886
rfingers 7.12502
rthumb 12.4643 -15.5197
lclavicle -3.97569e-016 -1.90833e-014
lhumerus -38.6119 12.3892 78.0095
lradius 35.4583
lwrist -2.91889
lhand -19.1049 19.9033
lfingers 7.12502
lthumb 7.20386 49.7607
rfemur -7.60083 2.21103 24.7266
rtibia 19.2225
rfoot -11.1776 -10.5133
rtoes 6.4371
lfemur -11.6432 -4.24323 -19.1514
ltibia 23.4858
lfoot -12.8233 3.71319
ltoes 0.839612
362
root 0.735119 17.7805 -17.2951 4.45606 -0.276973 0.666517
lowerback 6.85852 -0.46576 -1.41486
upperback -0.0308193 -0.659787 1.86752
thorax -3.84194 -0.28353 2.79615
lowerneck -20.3996 -4.03054 -9.46316
upperneck 14.8098 -4.09983 7.02637
head 8.28993 -1.76668 3.38117
rclavicle -2.98177e-016 -5.96354e-015
rhumerus -39.6098 -16.5563 -68.8007
rradius 37.732
rwrist 1.72981
rhand -13.8081 14.5393
rfingers 7.12502
rthumb 12.3142 -15.078
lclavicle -2.98177e-016 -5.96354e-015
lhumerus -38.6207 12.2389 78.1057
lradius 35.9227
lwrist -2.86499
lhand -18.7147 18.6864
lfingers 7.12502
lthumb 7.58049 48.5306
rfemur -7.40117 2.31765 24.7401
rtibia 19.045
rfoot -11.0456 -10.6256
rtoes 5.99726
lfemur -11.6013 -4.42665 -19.1577
ltibia 23.5503
lfoot -12.7722 3.87717
ltoes 0.95031
363
root 0.735751 17.7831 -17.2871 4.43763 -0.293961 0.653275
lowerback 6.78241 -0.494349 -1.36824
upperback -0.096803 -0.692329 1.89177
thorax -3.86597 -0.299441 2.79785
lowerneck -20.1001 -4.02348 -9.44521
upperneck 14.751 -4.10794 6.95654
head 8.21762 -1.78186 3.35405
rclavicle -1.02374e-014 -1.27222e-014
rhumerus -39.5736 -16.433 -68.9041
rradius 37.9194
rwrist 1.79506
rhand -13.796 14.559
rfingers 7.12502
rthumb 12.3258 -15.0577
lclavicle -1.02374e-014 -1.27222e-014
lhumerus -38.7712 12.0563 78.2074
lradius 36.4841
lwrist -2.74263
lhand -18.4295 19.3519
lfingers 7.12502
lthumb 7.85579 49.186
rfemur -7.29635 2.37235 24.7569
rtibia 18.923
rfoot -10.9475 -10.6844
rtoes 5.88041
lfemur -11.517 -4.62043 -19.1612
ltibia 23.5436
lfoot -12.7901 4.08478
ltoes 1.13038
364
root 0.735998 17.784 -17.2791 4.40203 -0.221645 0.712686
lowerback 6.70872 -0.531202 -1.36642
upperback -0.0990467 -0.741039 1.88875
thorax -3.82407 -0.324224 2.79726
lowerneck -20.1023 -4.02869 -9.5528
upperneck 14.8591 -4.09681 6.9998
head 8.25683 -1.77911 3.38912
rclavicle 5.96354e-015 -7.95139e-015
rhumerus -39.3787 -16.4474 -69.0126
rradius 38.0106
rwrist 1.86888
rhand -13.6346 14.4713
rfingers 7.12502
rthumb 12.4815 -15.136
lclavicle 5.96354e-015 -7.95139e-015
lhumerus -38.7954 11.8366 78.3406
lradius 37.0329
lwrist -2.41187
lhand -18.1603 21.4651
lfingers 7.12502
lthumb 8.11558 51.2893
rfemur -7.25804 2.27661 24.6941
rtibia 19.0004
rfoot -11.0358 -10.6803
rtoes 6.00385
lfemur -11.3467 -4.88148 -19.2373
ltibia 23.3889
lfoot -12.7263 4.23134
ltoes 1.27819
365
root 0.7344 17.7844 -17.2751 4.32636 -0.125703 0.746907
lowerback 6.76446 -0.521827 -1.34443
upperback -0.156934 -0.726993 1.87883
thorax -3.91669 -0.316029 2.77485
lowerneck -19.9749 -4.03384 -9.65417
upperneck 14.996 -4.0985 7.02811
head 8.28418 -1.78626 3.41737
rclavicle -1.5704e-014 3.97569e-015
rhumerus -39.4258 -16.4646 -69.0797
rradius 38.2155
rwrist 1.68888
rhand -13.7033 14.4712
rfingers 7.12502
rthumb 12.4151 -15.1401
lclavicle -1.5704e-014 3.97569e-015
lhumerus -38.8347 11.5517 78.4674
lradius 37.3685
lwrist -2.05352
lhand -18.0324 22.3936
lfingers 7.12502
lthumb 8.23907 52.213
rfemur -7.22272 2.27175 24.6745
rtibia 19.171
rfoot -11.2466 -10.7908
rtoes 6.01523
lfemur -11.1387 -5.01212 -19.2844
ltibia 23.182
lfoot -12.6367 4.28678
ltoes 0.958135
366
root 0.732557 17.7786 -17.271 4.30132 -0.153594 0.914324
lowerback 6.75707 -0.464318 -1.52188
upperback -0.238859 -0.664823 1.85588
thorax -3.99956 -0.279927 2.84593
lowerneck -19.6406 -4.039 -9.69591
upperneck 14.9638 -4.10961 6.94936
head 8.21609 -1.80801 3.39705
rclavicle 8.44835e-015 -7.95139e-015
rhumerus -39.5403 -16.455 -69.0961
rradius 38.4614
rwrist 1.4479
rhand -13.7742 14.3698
rfingers 7.12502
rthumb 12.3468 -15.2457
lclavicle 8.44835e-015 -7.95139e-015
lhumerus -38.9089 11.2908 78.6111
lradius 37.656
lwrist -1.91604
lhand -18.2041 22.1135
lfingers 7.12502
lthumb 8.07332 51.9393
rfemur -7.27217 2.27391 24.499
rtibia 19.3619
rfoot -11.3377 -10.7822
rtoes 6.01231
lfemur -11.0844 -4.94741 -19.5001
ltibia 22.9607
lfoot -12.42 4.41062
ltoes -0.28621
367
root 0.730845 17.7695 -17.2645 4.26061 -0.193159 0.983577
lowerback 6.70292 -0.44151 -1.55959
upperback -0.21997 -0.637931 1.83682
thorax -3.95091 -0.266848 2.84363
lowerneck -19.6306 -4.05617 -9.72384
upperneck 14.994 -4.11734 6.89879
head 8.22475 -1.81883 3.38355
rclavicle 1.00386e-014 0
rhumerus -39.392 -16.5435 -69.2182
rradius 38.6118
rwrist 1.29387
rhand -13.6233 14.6132
rfingers 7.12502
rthumb 12.4923 -14.9934
lclavicle 1.00386e-014 0
lhumerus -38.8569 11.1652 78.6904
lradius 37.9735
lwrist -1.994
lhand -18.2587 21.1721
lfingers 7.12502
lthumb 8.02067 50.9999
rfemur -7.3031 2.28553 24.432
rtibia 19.5222
rfoot -11.387 -10.7936
rtoes 6.17033
lfemur -10.9794 -4.96425 -19.5996
ltibia 22.7659
lfoot -12.2484 4.57569
ltoes -0.75932
368
root 0.73019 17.7685 -17.2566 4.18358 -0.208434 0.92198
lowerback 6.70963 -0.447971 -1.47221
upperback -0.240745 -0.638281 1.86744
thorax -3.9768 -0.267943 2.82654
lowerneck -19.5831 -4.01596 -9.77514
upperneck 15.0909 -4.04821 6.85789
head 8.24321 -1.79497 3.38845
rclavicle -2.37548e-014 9.54166e-015
rhumerus -39.2434 -16.4593 -69.3823
rradius 38.7003
rwrist 1.04549
rhand -13.3103 14.8892
rfingers 7.12502
rthumb 12.794 -14.6988
lclavicle -2.37548e-014 9.54166e-015
lhumerus -38.8573 11.1032 78.7591
lradius 38.11
lwrist -2.06391
lhand -18.5906 20.7561
lfingers 7.12502
lthumb 7.70027 50.5959
rfemur -7.30902 2.34081 24.5103
rtibia 19.7244
rfoot -11.4317 -10.824
rtoes 6.25702
lfemur -10.6857 -5.02123 -19.5425
ltibia 22.5167
lfoot -12.1931 4.60611
ltoes -0.105129
369
root 0.727177 17.7673 -17.2502 4.10887 -0.225743 0.868358
lowerback 6.73299 -0.458747 -1.45013
upperback -0.302339 -0.648734 1.91307
thorax -4.05307 -0.271516 2.86372
lowerneck -19.5318 -3.98577 -9.72706
upperneck 15.2979 -4.00084 6.69122
head 8.2952 -1.78933 3.33217
rclavicle -4.91992e-015 8.74653e-015
rhumerus -39.1657 -16.2864 -69.5544
rradius 38.8156
rwrist 0.880301
rhand -13.1453 14.9177
rfingers 7.12502
rthumb 12.9531 -14.6603
lclavicle -4.91992e-015 8.74653e-015
lhumerus -38.9433 10.977 78.8595
lradius 38.2944
lwrist -1.83221
lhand -19.0536 21.4594
lfingers 7.12502
lthumb 7.25345 51.315
rfemur -7.26024 2.44678 24.6028
rtibia 19.8541
rfoot -11.4728 -10.9691
rtoes 5.61201
lfemur -10.4735 -4.97916 -19.4804
ltibia 22.2909
lfoot -12.1336 4.5867
ltoes -0.0202646
370
root 0.723937 17.769 -17.2438 4.03724 -0.127945 0.969982
lowerback 6.77301 -0.523715 -1.55354
upperback -0.296677 -0.744106 1.90952
thorax -4.0628 -0.316647 2.92857
lowerneck -19.763 -4.00421 -9.5876
upperneck 15.4857 -4.0047 6.46454
head 8.39086 -1.80355 3.23148
rclavicle -6.85807e-015 7.15625e-015
rhumerus -39.0595 -15.9246 -69.9063
rradius 39.2089
rwrist 0.632164
rhand -13.3338 14.7055
rfingers 7.12502
rthumb 12.7714 -14.8839
lclavicle -6.85807e-015 7.15625e-015
lhumerus -38.8845 10.861 78.9763
lradius 38.5842
lwrist -1.53215
lhand -19.1195 22.358
lfingers 7.12502
lthumb 7.18985 52.2159
rfemur -7.14708 2.48365 24.5003
rtibia 19.9051
rfoot -11.6474 -11.0073
rtoes 6.68451
lfemur -10.3317 -4.95575 -19.588
ltibia 22.104
lfoot -12.0486 4.48955
ltoes -0.48791
371
root 0.720978 17.7716 -17.238 4.01202 0.0294211 1.06842
lowerback 6.74322 -0.605867 -1.65575
upperback -0.250378 -0.861153 1.92815
thorax -3.98899 -0.373991 3.01615
lowerneck -19.9087 -4.01301 -9.63771
upperneck 15.449 -3.98347 6.45141
head 8.40259 -1.79512 3.23673
rclavicle -1.32192e-014 1.82882e-014
rhumerus -38.8401 -15.6494 -70.2013
rradius 39.5394
rwrist 0.466404
rhand -13.377 14.7805
rfingers 7.12502
rthumb 12.7298 -14.8114
lclavicle -1.32192e-014 1.82882e-014
lhumerus -38.7459 10.845 79.1006
lradius 38.7826
lwrist -1.49617
lhand -19.145 22.8064
lfingers 7.12502
lthumb 7.16519 52.6651
rfemur -7.10419 2.4908 24.3877
rtibia 19.9442
rfoot -11.8071 -10.9791
rtoes 8.41183
lfemur -10.297 -4.95994 -19.6808
ltibia 21.9348
lfoot -11.8478 4.37094
ltoes -1.07469
